<svg width="144" height="50" viewBox="0 0 144 50" fill="none" xmlns="http://www.w3.org/2000/svg">
<g clip-path="url(#clip0)">
<path d="M60.7428 19.7723C61.0095 20.5723 61.2962 21.4076 61.6028 22.2783C61.9095 23.149 62.2255 24.0156 62.5508 24.8783C62.8802 25.7449 63.2092 26.5983 63.5378 27.4383C63.8665 28.2783 64.1828 29.0689 64.4868 29.8103C64.7402 29.0103 64.9845 28.1379 65.2198 27.1933C65.4552 26.2486 65.6915 25.2689 65.9288 24.2543C66.1648 23.2376 66.3982 22.2023 66.6288 21.1483C66.8595 20.0943 67.0742 19.0549 67.2728 18.0303H70.5618C69.9725 20.8223 69.3158 23.5056 68.5918 26.0803C67.8678 28.6549 67.0595 31.1156 66.1668 33.4623H63.0999C61.7919 30.4623 60.5268 27.1889 59.3048 23.6423C58.6802 25.4383 58.0468 27.1456 57.4048 28.7643C56.7628 30.3829 56.1212 31.9496 55.4798 33.4643H52.4298C51.5205 31.1189 50.7085 28.6583 49.9939 26.0823C49.2792 23.5063 48.6272 20.823 48.0378 18.0323H51.4529C51.6529 19.0423 51.8682 20.0756 52.0988 21.1323C52.3295 22.1889 52.5658 23.2243 52.8078 24.2383C53.0518 25.2549 53.3002 26.2383 53.5528 27.1883C53.8055 28.1383 54.0589 29.0143 54.3129 29.8163C54.6322 29.0596 54.9565 28.2616 55.2858 27.4223C55.6152 26.5829 55.9402 25.7293 56.2608 24.8613C56.5808 23.9946 56.8885 23.1303 57.1839 22.2683C57.4792 21.4063 57.7532 20.5746 58.0058 19.7733L60.7428 19.7723Z" fill="#004A9B"/>
<path d="M75.998 18.4148C76.0061 18.6446 75.9599 18.873 75.8631 19.0815C75.7663 19.29 75.6217 19.4727 75.441 19.6148C75.0678 19.9124 74.6022 20.0698 74.125 20.0598C73.64 20.0726 73.1659 19.9152 72.785 19.6148C72.6043 19.4727 72.4596 19.29 72.3629 19.0815C72.2661 18.873 72.2199 18.6446 72.228 18.4148C72.2178 18.1812 72.263 17.9485 72.3597 17.7356C72.4565 17.5228 72.6022 17.3357 72.785 17.1898C73.1661 16.8899 73.6401 16.7325 74.125 16.7448C74.6021 16.7353 75.0675 16.8927 75.441 17.1898C75.6237 17.3357 75.7694 17.5228 75.8662 17.7356C75.963 17.9485 76.0081 18.1812 75.998 18.4148ZM75.669 33.4678H72.607V21.8218H75.669V33.4678Z" fill="#004A9B"/>
<path d="M89.7349 33.1115C88.9807 33.3033 88.2161 33.4515 87.4449 33.5555C86.4844 33.6921 85.5152 33.759 84.5449 33.7555C83.592 33.7698 82.6433 33.6269 81.7369 33.3325C80.9568 33.077 80.2375 32.6638 79.6239 32.1185C79.0399 31.5886 78.582 30.9346 78.2839 30.2045C77.9615 29.4013 77.8021 28.5419 77.8149 27.6765C77.8038 26.8253 77.9367 25.9784 78.2079 25.1715C78.4495 24.4546 78.842 23.7978 79.3589 23.2455C79.8761 22.7028 80.5068 22.281 81.2059 22.0105C82.0039 21.7076 82.8525 21.5599 83.7059 21.5755C84.2789 21.5669 84.8506 21.6342 85.4059 21.7755C85.8387 21.8894 86.2615 22.0386 86.6699 22.2215V16.6335L89.7319 16.1875L89.7349 33.1115ZM80.9559 27.6115C80.8974 28.6328 81.2425 29.6362 81.9169 30.4055C82.2635 30.7516 82.6793 31.0206 83.1369 31.1952C83.5946 31.3697 84.0839 31.4458 84.5729 31.4185C84.9913 31.4219 85.4095 31.4036 85.8259 31.3635C86.1709 31.3265 86.4539 31.2845 86.6729 31.2405V24.5605C86.3334 24.3673 85.9727 24.2139 85.5979 24.1035C85.1352 23.9603 84.6533 23.8891 84.1689 23.8925C83.7117 23.8532 83.2517 23.9234 82.827 24.0973C82.4024 24.2712 82.0252 24.5438 81.7269 24.8925C81.1742 25.6876 80.9028 26.6446 80.9559 27.6115Z" fill="#004A9B"/>
<path d="M91.8837 27.6998C91.8644 26.7751 92.0417 25.8568 92.4037 25.0058C92.7208 24.2731 93.1906 23.6165 93.7817 23.0798C94.3563 22.567 95.0269 22.1734 95.7548 21.9218C96.4858 21.665 97.255 21.5338 98.0297 21.5338C98.8039 21.4877 99.5794 21.5959 100.311 21.8521C101.043 22.1082 101.717 22.5071 102.294 23.0258C102.838 23.6253 103.254 24.3295 103.517 25.0953C103.78 25.861 103.885 26.6724 103.824 27.4798C103.824 27.6278 103.824 27.7948 103.812 27.9798C103.8 28.1648 103.79 28.3328 103.774 28.4798H95.0447C95.065 28.9014 95.1761 29.3137 95.3704 29.6884C95.5647 30.0631 95.8378 30.3914 96.1708 30.6508C97.027 31.2179 98.046 31.4878 99.0707 31.4188C99.7535 31.4242 100.435 31.3646 101.107 31.2408C101.601 31.1547 102.088 31.028 102.562 30.8618L102.962 33.0668C102.734 33.161 102.5 33.2389 102.262 33.2998C101.967 33.3818 101.63 33.4561 101.25 33.5228C100.871 33.5898 100.461 33.6458 100.023 33.6898C99.5772 33.735 99.1296 33.7573 98.6817 33.7568C97.6515 33.7777 96.6252 33.6232 95.6467 33.2998C94.8575 33.0366 94.1351 32.6046 93.5297 32.0338C92.9769 31.4974 92.553 30.8427 92.2897 30.1188C92.0127 29.3427 91.8752 28.5238 91.8837 27.6998ZM100.765 26.4998C100.766 26.1396 100.706 25.7819 100.588 25.4418C100.476 25.1198 100.3 24.8243 100.069 24.5738C99.8343 24.3241 99.5497 24.1268 99.2337 23.9948C98.8598 23.8454 98.4593 23.7736 98.0567 23.7838C97.632 23.7743 97.21 23.8537 96.8177 24.0168C96.4807 24.1605 96.175 24.3688 95.9177 24.6298C95.6744 24.8801 95.4812 25.1748 95.3487 25.4978C95.2147 25.8182 95.1214 26.1542 95.0707 26.4978L100.765 26.4998Z" fill="#004A9B"/>
<path d="M111.493 33.6452C110.565 33.6452 109.629 33.6192 108.684 33.5672C107.85 33.5298 107.021 33.4217 106.205 33.2442V18.2582C106.575 18.1995 106.971 18.1438 107.394 18.0912C107.816 18.0385 108.247 17.9975 108.684 17.9682C109.123 17.9402 109.557 17.9172 109.984 17.9022C110.411 17.8872 110.823 17.8802 111.211 17.8802C112.201 17.8748 113.19 17.9453 114.17 18.0912C114.989 18.2049 115.787 18.4409 116.536 18.7912C117.157 19.0801 117.693 19.5248 118.092 20.0822C118.478 20.6688 118.673 21.3611 118.649 22.0632C118.665 22.7365 118.453 23.3955 118.049 23.9342C117.612 24.4849 117.042 24.9144 116.392 25.1812C117.296 25.3976 118.115 25.8784 118.745 26.5622C119.267 27.2181 119.536 28.0395 119.504 28.8772C119.537 29.597 119.371 30.3121 119.022 30.9429C118.674 31.5738 118.158 32.0959 117.531 32.4512C115.656 33.3673 113.575 33.7789 111.493 33.6452ZM109.342 24.3152H111.593C112.567 24.3566 113.539 24.2012 114.452 23.8582C114.776 23.7305 115.051 23.5033 115.237 23.2092C115.423 22.9152 115.512 22.5696 115.489 22.2222C115.501 21.8786 115.404 21.5399 115.211 21.2554C115.018 20.9709 114.739 20.7554 114.415 20.6402C113.522 20.2978 112.57 20.1389 111.615 20.1732C111.126 20.1732 110.693 20.1808 110.315 20.1962C109.937 20.2115 109.612 20.2338 109.341 20.2632L109.342 24.3152ZM109.342 26.5152V31.2152C109.696 31.2452 110.075 31.2675 110.48 31.2822C110.88 31.2972 111.255 31.3052 111.593 31.3052C112.206 31.3081 112.819 31.2707 113.427 31.1932C113.932 31.1354 114.427 31.0044 114.895 30.8042C115.279 30.6392 115.618 30.3832 115.882 30.0582C116.137 29.7114 116.266 29.2881 116.248 28.8582C116.277 28.4788 116.188 28.0997 115.993 27.7729C115.798 27.446 115.507 27.1873 115.16 27.0322C114.205 26.6486 113.178 26.474 112.15 26.5202L109.342 26.5152Z" fill="#004A9B"/>
<path d="M133.63 27.6336C133.641 28.494 133.487 29.3486 133.175 30.1506C132.889 30.8814 132.448 31.5421 131.884 32.0876C131.305 32.6356 130.621 33.0599 129.873 33.3346C129.043 33.6395 128.164 33.7903 127.28 33.7796C126.4 33.7911 125.525 33.6403 124.7 33.3346C123.956 33.0579 123.276 32.6338 122.7 32.0876C122.136 31.5401 121.693 30.8801 121.4 30.1506C121.08 29.3506 120.92 28.4953 120.931 27.6336C120.92 26.7774 121.079 25.9276 121.4 25.1336C121.697 24.4057 122.145 23.7492 122.715 23.2076C123.295 22.6637 123.979 22.2432 124.726 21.9716C125.545 21.6742 126.411 21.5269 127.282 21.5366C128.157 21.5275 129.027 21.6748 129.85 21.9716C130.599 22.2391 131.284 22.6601 131.861 23.2076C132.423 23.7525 132.866 24.4084 133.161 25.1336C133.481 25.9276 133.641 26.7774 133.63 27.6336ZM130.493 27.6336C130.547 26.6456 130.247 25.6706 129.646 24.8846C129.341 24.5641 128.974 24.309 128.567 24.1347C128.161 23.9604 127.723 23.8705 127.28 23.8705C126.838 23.8705 126.4 23.9604 125.994 24.1347C125.587 24.309 125.22 24.5641 124.915 24.8846C124.313 25.6703 124.012 26.6454 124.067 27.6336C124.012 28.6326 124.312 29.619 124.915 30.4176C125.218 30.7408 125.585 30.9985 125.992 31.1747C126.398 31.3508 126.837 31.4417 127.28 31.4417C127.724 31.4417 128.162 31.3508 128.569 31.1747C128.976 30.9985 129.343 30.7408 129.646 30.4176C130.247 29.6184 130.547 28.6322 130.491 27.6336H130.493Z" fill="#004A9B"/>
<path d="M135.63 18.7487L138.692 18.3027V21.8217H143.398V24.0707H138.692V28.8127C138.628 29.5192 138.806 30.2264 139.198 30.8177C139.423 31.0379 139.694 31.2058 139.991 31.3095C140.288 31.4132 140.605 31.4501 140.918 31.4177C141.416 31.4241 141.912 31.3718 142.398 31.2617C142.828 31.1577 143.169 31.0614 143.423 30.9727L143.929 33.1107C143.473 33.2739 143.009 33.4111 142.538 33.5217C141.874 33.6727 141.194 33.7438 140.514 33.7337C139.712 33.7546 138.912 33.6417 138.148 33.3997C137.57 33.2133 137.052 32.8793 136.643 32.4307C136.261 31.9891 135.992 31.4618 135.858 30.8937C135.698 30.2193 135.621 29.5278 135.63 28.8347V18.7487Z" fill="#004A9B"/>
<path d="M10.5119 8.39304L12.9659 12.962C13.7949 12.7016 14.6442 12.5106 15.5049 12.391C17.762 12.0647 20.0393 11.8976 22.3199 11.891H22.4079C24.809 11.8864 27.2056 12.1003 29.5679 12.53C33.5179 13.254 35.5409 15.454 35.7299 18.894C35.8471 21.1905 35.6513 23.4923 35.1479 25.736C35.1479 25.736 34.7009 27.571 34.4139 28.471C33.0891 32.9835 31.3615 37.3678 29.2519 41.571L26.7859 36.979C25.9499 37.2434 25.0933 37.4371 24.2249 37.558C21.9678 37.8844 19.6905 38.0515 17.4099 38.058H17.3229C14.9215 38.0622 12.5246 37.8483 10.1619 37.419C6.2119 36.695 4.18889 34.495 3.99989 31.055C3.84218 27.454 4.40484 23.8578 5.65489 20.477C6.93602 16.3207 8.56063 12.2781 10.5119 8.39102V8.39304ZM10.1539 -0.00195312L6.92089 6.14703C4.88752 10.1868 3.1953 14.3894 1.86189 18.711C0.476807 22.51 -0.142102 26.5456 0.0408951 30.585C0.348895 36.167 4.11289 40.155 10.1119 41.255C12.7185 41.7283 15.3627 41.9646 18.0119 41.961H18.1069C20.4304 41.9551 22.7509 41.7941 25.0529 41.479L25.8139 42.897L29.6139 49.964L32.8479 43.817C35.05 39.4373 36.8513 34.8673 38.2299 30.163C38.5409 29.175 38.9649 27.444 39.0129 27.248L39.0219 27.209L39.0309 27.17C39.6007 24.6095 39.8217 21.9838 39.6879 19.364C39.3809 13.782 35.6159 9.79403 29.6169 8.69403C27.0103 8.22074 24.3661 7.98445 21.7169 7.98804H21.6169C19.3012 7.99393 16.9884 8.15395 14.6939 8.46704L13.9429 7.06705L10.1429 -0.000976562L10.1539 -0.00195312Z" fill="#FF5100"/>
<path d="M24.5906 20.3505L19.7358 25.1504L24.4816 29.9504L29.3364 25.1506L24.5906 20.3505Z" fill="#004A9B"/>
<path d="M15.1807 20.3505L10.3259 25.1504L15.0717 29.9504L19.9265 25.1506L15.1807 20.3505Z" fill="#004A9B"/>
</g>
<defs>
<clipPath id="clip0">
<rect width="143.925" height="49.966" fill="white"/>
</clipPath>
</defs>
</svg>
